<svg width="433" height="457" viewBox="0 0 433 457" fill="none" xmlns="http://www.w3.org/2000/svg">
<rect width="433" height="457" rx="216.5" fill="#F25453"/>
<path fill-rule="evenodd" clip-rule="evenodd" d="M277.806 145.94C275.436 151.462 274.123 159.753 274.586 166.263C274.969 171.628 277.077 179.592 279.131 183.424C280.863 186.659 269.714 204.62 259.723 214.691C249.7 224.793 240.114 230.255 228.446 232.512C204.236 237.195 183.707 249.319 171.79 265.974C167.444 272.048 162.78 282.168 160.686 290.071C159.074 296.156 158.854 298.306 158.823 308.346C158.784 321.053 159.536 325.535 163.452 335.95C166.814 344.892 171.635 352.447 178.396 359.372C184.676 365.804 189.89 369.633 197.705 373.551C198.242 373.82 198.736 374.073 199.2 374.311C200.409 374.931 201.416 375.446 202.458 375.876C207.643 378.012 213.71 378.01 249.956 377.999C252.755 377.998 255.735 377.997 258.907 377.997H309.56L309.556 374.031C309.547 364.437 305.314 359.139 295.317 356.206C287.239 353.837 267.579 355.091 251.572 358.997C250.912 359.158 250.305 359.308 249.75 359.446L249.749 359.446L249.673 359.465L249.655 359.469C249.597 359.484 249.539 359.498 249.483 359.512C249.383 359.537 249.286 359.561 249.19 359.585C246.483 360.254 245.15 360.558 244.929 360.192C244.705 359.822 245.616 358.768 247.388 356.716C247.725 356.326 248.093 355.9 248.49 355.435C261.952 339.702 266.143 322.838 260.591 306.746C254.027 287.72 234.048 276.918 213.479 281.274C210.184 281.972 207.664 282.257 207.88 281.908C208.65 280.664 218.163 276.738 222.429 275.904C224.985 275.404 229.335 275.203 233.022 275.412C238.518 275.725 239.927 276.093 244.624 278.438L249.971 281.106L247.863 276.624C243.892 268.182 244.715 255.587 249.778 247.32L251.465 244.566L251.386 252.492C251.341 257.011 251.702 262.048 252.225 264.211C255.3 276.918 264.583 285.431 278.203 288.034C284.962 289.327 290.132 289.3 298.752 287.931C312.743 285.71 317.313 287.225 318.46 294.469C319.264 299.558 318.257 303.477 315.238 307.001L312.711 309.95L314.737 309.442C322.319 307.541 329.42 301.371 331.298 295.051C334.901 282.931 328.708 273.279 314.392 268.703C290.098 260.939 279.871 244.851 285.792 223.716L286.994 219.424L289.599 224.75C293.902 233.545 300.794 239.234 309.935 241.533C315.167 242.849 325.582 241.956 331.645 239.671C337.521 237.457 347.245 231.201 351.282 227.038L354 224.235L352.76 220.259C350.815 214.022 345.158 203.578 340.993 198.534C333.724 189.73 322.742 183.051 310.25 179.836L303.692 178.148L303.159 173.424C301.742 160.875 294.627 150.717 283.138 144.841L279.152 142.803L277.806 145.94ZM283.897 163.71C283.911 160.587 284.153 157.66 284.434 157.205C284.778 156.65 285.941 157.476 287.979 159.726C291.769 163.908 293.629 167.503 294.357 172.053C294.893 175.41 294.226 182.535 293.29 183.448C292.413 184.303 286.818 177.161 285.367 173.334C284.26 170.417 283.878 167.91 283.897 163.71ZM306.108 203.267C306.108 200.662 308.702 196.939 311.229 195.918C316.349 193.849 321.986 197.835 321.986 203.525C321.986 208.115 318.683 211.387 314.047 211.387C309.308 211.387 306.108 208.115 306.108 203.267Z" fill="white"/>
<path fill-rule="evenodd" clip-rule="evenodd" d="M310.972 199.694C309.108 201.938 312.193 204.638 314.262 202.572C315.14 201.694 315.231 201.155 314.652 200.236C313.644 198.638 312.046 198.402 310.972 199.694Z" fill="white"/>
<path d="M151.473 79.7552C131.552 82.786 114.954 90.9827 102.439 103.972C87.1799 119.809 78.9677 139.192 79.0001 159.294C79.0146 168.025 80.1716 174.015 83.0841 180.431C88.7117 192.83 99.8841 201.373 113.384 203.6C117.341 204.253 119.08 204.189 123.869 203.22C129.293 202.122 134.354 200.145 135.187 198.801C135.393 198.468 133.622 198.039 131.251 197.849C125.79 197.411 120.938 195.002 117.068 190.808C112.563 185.926 111.157 182.226 111.157 175.251C111.157 168.159 112.594 164.49 117.363 159.396C124.732 151.526 134.874 147.052 146.673 146.467C156.596 145.974 163.513 147.396 172.529 151.784C184.558 157.637 192.496 165.48 198.027 176.975C201.576 184.348 202.97 189.396 203.647 197.319C204.247 204.346 204.895 202.955 205.997 192.27C207.309 179.547 204.54 165.841 198.657 155.933C195.113 149.965 187.448 142.333 181.503 138.852C171.713 133.121 157.694 130.005 144.57 130.644C136.182 131.053 137.121 130.375 147.293 128.675C152.59 127.791 156.718 127.585 163.788 127.851C175.272 128.285 181.711 129.828 190.822 134.332C196.344 137.06 198.364 138.561 203.601 143.826C214.878 155.163 219.819 168.209 219.814 186.63C219.81 199.464 217.286 211.898 212.484 222.744C211.581 224.784 210.842 226.6 210.842 226.779C210.842 227.406 218.83 222.629 223.268 219.347C235.185 210.532 244.54 197.414 249.058 183.182C251.523 175.413 252.262 170.571 252.261 162.194C252.259 140.322 243.283 119.451 226.72 102.799C214.216 90.2283 203.244 84.2425 185.645 80.3924C178.655 78.8628 159.665 78.509 151.473 79.7552Z" fill="white"/>
<path d="M142.197 160.851C136.715 162.412 129.063 167.18 126.36 170.72C125.365 172.024 124.55 173.224 124.55 173.388C124.55 173.553 126.647 173.089 129.21 172.359C135.314 170.619 144.163 170.906 148.834 172.995C154.144 175.37 161.191 182.707 163.18 187.932C163.816 189.603 163.696 189.569 160.594 187.19C156.697 184.202 152.882 182.456 148.813 181.798L145.807 181.312L147.651 184.455C148.742 186.315 149.652 189.112 149.878 191.304C150.601 198.297 148.036 203.995 134.287 225.938C121.452 246.42 113.217 266.014 110.954 281.451L110.399 285.244L110.053 281.106C109.864 278.831 109.925 273.565 110.19 269.406C110.994 256.793 113.857 246.273 119.738 234.332C123.763 226.16 122.849 226.384 114.694 235.573C103.167 248.562 96.0458 264.475 94.1792 281.417C92.1144 300.162 98.4585 320.633 111.333 336.766C123.406 351.896 139.522 361.756 157.859 365.231C160.885 365.804 164.803 366.269 166.564 366.264L169.767 366.254L163.739 362.988C146.636 353.723 134.319 340.765 127.1 324.444C124.559 318.701 121.295 305.921 120.435 298.347C119.599 290.995 119.566 279.466 120.369 275.589L120.94 272.831L121.021 275.245C121.163 279.435 123.179 289.684 125.006 295.501C129.751 310.609 136.644 320.151 148.306 327.758C150.551 329.222 152.512 330.295 152.665 330.143C152.817 329.99 151.871 327.739 150.561 325.139C141.589 307.332 139.454 287.938 144.689 271.797C146.613 265.864 148.33 262.512 156.166 249.384C167.557 230.301 170.63 221.923 171.304 208.108C171.523 203.612 171.94 200.357 172.23 200.875C173.38 202.927 174.945 213.668 174.945 219.503C174.945 231.071 172.251 241.782 166.893 251.519C165.536 253.985 164.567 256.142 164.739 256.314C165.096 256.671 169.84 251.695 173.975 246.626C181.359 237.573 187.611 225.872 190.241 216.182C192.006 209.682 192.341 197.617 190.918 191.802C185.389 169.195 162.954 154.943 142.197 160.851Z" fill="white"/>
<path d="M285.226 296.435C281.084 296.601 279.188 296.939 279.193 297.512C279.198 297.971 279.675 300.053 280.254 302.14C281.76 307.565 282.333 320.376 281.308 325.707C279.465 335.29 273.578 344.232 263.998 352.003L260.891 354.522L265.531 353.211C273.999 350.818 283.065 345.424 287.691 340.025C290.539 336.701 293.865 329.947 295.14 324.897C296.354 320.089 296.241 304.487 294.957 299.726C294.896 299.498 294.84 299.285 294.788 299.085C294.511 298.021 294.332 297.332 293.897 296.9C293.101 296.109 291.448 296.177 286.767 296.372C286.286 296.392 285.773 296.413 285.226 296.435Z" fill="white"/>
<path d="M300.331 149.078C299.107 151.147 299.114 151.211 300.775 153.388C303.762 157.303 306.194 162.882 307.373 168.524L308.524 174.031L312.666 175.321L312.814 175.367C315.975 176.351 317.39 176.791 318.022 176.275C318.534 175.858 318.534 174.813 318.534 172.924V172.815C318.534 168.293 316.574 162.091 313.638 157.323C311.282 153.499 304.366 146.977 302.667 146.977C302.066 146.977 301.015 147.923 300.331 149.078Z" fill="white"/>
</svg>
